<svg width="960" height="1920" viewBox="0 0 960 1920" fill="none" xmlns="http://www.w3.org/2000/svg">
<g clip-path="url(#clip0_227_188)">
<rect width="960" height="1920" fill="white"/>
<rect x="195" y="20.0254" width="25.7533" height="69.975" fill="#8C8C8C"/>
<path d="M249.979 55.9131L235.41 20.0002L264.549 20.0002L249.979 55.9131Z" fill="#8C8C8C"/>
<path d="M221.14 56.313H249.979L265 89.994H234.659L221.14 56.313Z" fill="#8C8C8C"/>
<rect x="365" y="21.0254" width="25.7533" height="69.975" fill="#8C8C8C"/>
<path d="M419.979 56.9131L405.41 21.0002L434.549 21.0002L419.979 56.9131Z" fill="#8C8C8C"/>
<path d="M391.14 57.313H419.979L435 90.994H404.659L391.14 57.313Z" fill="#8C8C8C"/>
<rect x="535" y="22.0254" width="25.7533" height="69.975" fill="#8C8C8C"/>
<path d="M589.979 57.9131L575.41 22.0002L604.549 22.0002L589.979 57.9131Z" fill="#8C8C8C"/>
<path d="M561.14 58.313H589.979L605 91.994H574.658L561.14 58.313Z" fill="#8C8C8C"/>
<rect x="705" y="20.0254" width="25.7533" height="69.975" fill="#8C8C8C"/>
<path d="M759.979 55.9131L745.41 20.0002L774.549 20.0002L759.979 55.9131Z" fill="#8C8C8C"/>
<path d="M731.14 56.313H759.979L775 89.994H744.658L731.14 56.313Z" fill="#8C8C8C"/>
<rect x="875" y="20.0254" width="25.7533" height="69.975" fill="#8C8C8C"/>
<path d="M929.979 55.9131L915.41 20.0002L944.549 20.0002L929.979 55.9131Z" fill="#8C8C8C"/>
<path d="M901.14 56.313H929.979L945 89.994H914.658L901.14 56.313Z" fill="#8C8C8C"/>
<rect x="25" y="12.0254" width="25.7533" height="69.975" fill="#8C8C8C"/>
<path d="M79.9794 47.9131L65.4103 12.0002L94.5486 12.0002L79.9794 47.9131Z" fill="#8C8C8C"/>
<path d="M51.14 48.313H79.9795L95 81.994H64.6585L51.14 48.313Z" fill="#8C8C8C"/>
<rect x="55" y="934.025" width="25.7533" height="69.975" fill="#8C8C8C"/>
<path d="M109.979 969.913L95.4103 934L124.549 934L109.979 969.913Z" fill="#8C8C8C"/>
<path d="M81.14 970.313H109.979L125 1003.99H94.6585L81.14 970.313Z" fill="#8C8C8C"/>
<rect x="225" y="935.025" width="25.7533" height="69.975" fill="#8C8C8C"/>
<path d="M279.979 970.913L265.41 935L294.549 935L279.979 970.913Z" fill="#8C8C8C"/>
<path d="M251.14 971.313H279.979L295 1004.99H264.659L251.14 971.313Z" fill="#8C8C8C"/>
<rect x="395" y="936.025" width="25.7533" height="69.975" fill="#8C8C8C"/>
<path d="M449.979 971.913L435.41 936L464.549 936L449.979 971.913Z" fill="#8C8C8C"/>
<path d="M421.14 972.313H449.979L465 1005.99H434.659L421.14 972.313Z" fill="#8C8C8C"/>
<rect x="565" y="934.025" width="25.7533" height="69.975" fill="#8C8C8C"/>
<path d="M619.979 969.913L605.41 934L634.549 934L619.979 969.913Z" fill="#8C8C8C"/>
<path d="M591.14 970.313H619.979L635 1003.99H604.658L591.14 970.313Z" fill="#8C8C8C"/>
<rect x="735" y="934.025" width="25.7533" height="69.975" fill="#8C8C8C"/>
<path d="M789.979 969.913L775.41 934L804.549 934L789.979 969.913Z" fill="#8C8C8C"/>
<path d="M761.14 970.313H789.979L805 1003.99H774.658L761.14 970.313Z" fill="#8C8C8C"/>
<rect x="905" y="934.025" width="25.7533" height="69.975" fill="#8C8C8C"/>
<path d="M959.979 969.913L945.41 934L974.549 934L959.979 969.913Z" fill="#8C8C8C"/>
<path d="M931.14 970.313H959.979L975 1003.99H944.658L931.14 970.313Z" fill="#8C8C8C"/>
<rect x="202" y="477.025" width="25.7533" height="69.975" fill="#8C8C8C"/>
<path d="M256.979 512.913L242.41 477L271.549 477L256.979 512.913Z" fill="#8C8C8C"/>
<path d="M228.14 513.313H256.979L272 546.994H241.659L228.14 513.313Z" fill="#8C8C8C"/>
<rect x="372" y="478.025" width="25.7533" height="69.975" fill="#8C8C8C"/>
<path d="M426.979 513.913L412.41 478L441.549 478L426.979 513.913Z" fill="#8C8C8C"/>
<path d="M398.14 514.313H426.979L442 547.994H411.659L398.14 514.313Z" fill="#8C8C8C"/>
<rect x="542" y="479.025" width="25.7533" height="69.975" fill="#8C8C8C"/>
<path d="M596.979 514.913L582.41 479L611.549 479L596.979 514.913Z" fill="#8C8C8C"/>
<path d="M568.14 515.313H596.979L612 548.994H581.658L568.14 515.313Z" fill="#8C8C8C"/>
<rect x="712" y="477.025" width="25.7533" height="69.975" fill="#8C8C8C"/>
<path d="M766.979 512.913L752.41 477L781.549 477L766.979 512.913Z" fill="#8C8C8C"/>
<path d="M738.14 513.313H766.979L782 546.994H751.658L738.14 513.313Z" fill="#8C8C8C"/>
<rect x="882" y="477.025" width="25.7533" height="69.975" fill="#8C8C8C"/>
<path d="M936.979 512.913L922.41 477L951.549 477L936.979 512.913Z" fill="#8C8C8C"/>
<path d="M908.14 513.313H936.979L952 546.994H921.658L908.14 513.313Z" fill="#8C8C8C"/>
<rect x="32" y="469.025" width="25.7533" height="69.975" fill="#8C8C8C"/>
<path d="M86.9794 504.913L72.4103 469L101.549 469L86.9794 504.913Z" fill="#8C8C8C"/>
<path d="M58.14 505.313H86.9795L102 538.994H71.6585L58.14 505.313Z" fill="#8C8C8C"/>
<rect x="62" y="1391.03" width="25.7533" height="69.975" fill="#8C8C8C"/>
<path d="M116.979 1426.91L102.41 1391L131.549 1391L116.979 1426.91Z" fill="#8C8C8C"/>
<path d="M88.14 1427.31H116.979L132 1460.99H101.659L88.14 1427.31Z" fill="#8C8C8C"/>
<rect x="232" y="1392.03" width="25.7533" height="69.975" fill="#8C8C8C"/>
<path d="M286.979 1427.91L272.41 1392L301.549 1392L286.979 1427.91Z" fill="#8C8C8C"/>
<path d="M258.14 1428.31H286.979L302 1461.99H271.659L258.14 1428.31Z" fill="#8C8C8C"/>
<rect x="402" y="1393.03" width="25.7533" height="69.975" fill="#8C8C8C"/>
<path d="M456.979 1428.91L442.41 1393L471.549 1393L456.979 1428.91Z" fill="#8C8C8C"/>
<path d="M428.14 1429.31H456.979L472 1462.99H441.659L428.14 1429.31Z" fill="#8C8C8C"/>
<rect x="572" y="1391.03" width="25.7533" height="69.975" fill="#8C8C8C"/>
<path d="M626.979 1426.91L612.41 1391L641.549 1391L626.979 1426.91Z" fill="#8C8C8C"/>
<path d="M598.14 1427.31H626.979L642 1460.99H611.658L598.14 1427.31Z" fill="#8C8C8C"/>
<rect x="742" y="1391.03" width="25.7533" height="69.975" fill="#8C8C8C"/>
<path d="M796.979 1426.91L782.41 1391L811.549 1391L796.979 1426.91Z" fill="#8C8C8C"/>
<path d="M768.14 1427.31H796.979L812 1460.99H781.658L768.14 1427.31Z" fill="#8C8C8C"/>
<rect x="912" y="1391.03" width="25.7533" height="69.975" fill="#8C8C8C"/>
<path d="M966.979 1426.91L952.41 1391L981.549 1391L966.979 1426.91Z" fill="#8C8C8C"/>
<path d="M938.14 1427.31H966.979L982 1460.99H951.658L938.14 1427.31Z" fill="#8C8C8C"/>
<rect x="105" y="130.025" width="25.7533" height="69.975" fill="#8C8C8C"/>
<path d="M159.979 165.913L145.41 130L174.549 130L159.979 165.913Z" fill="#8C8C8C"/>
<path d="M131.14 166.313H159.979L175 199.994H144.659L131.14 166.313Z" fill="#8C8C8C"/>
<rect x="275" y="131.025" width="25.7533" height="69.975" fill="#8C8C8C"/>
<path d="M329.979 166.913L315.41 131L344.549 131L329.979 166.913Z" fill="#8C8C8C"/>
<path d="M301.14 167.313H329.979L345 200.994H314.659L301.14 167.313Z" fill="#8C8C8C"/>
<rect x="445" y="132.025" width="25.7533" height="69.975" fill="#8C8C8C"/>
<path d="M499.979 167.913L485.41 132L514.549 132L499.979 167.913Z" fill="#8C8C8C"/>
<path d="M471.14 168.313H499.979L515 201.994H484.659L471.14 168.313Z" fill="#8C8C8C"/>
<rect x="615" y="130.025" width="25.7533" height="69.975" fill="#8C8C8C"/>
<path d="M669.979 165.913L655.41 130L684.549 130L669.979 165.913Z" fill="#8C8C8C"/>
<path d="M641.14 166.313H669.979L685 199.994H654.658L641.14 166.313Z" fill="#8C8C8C"/>
<rect x="785" y="130.025" width="25.7533" height="69.975" fill="#8C8C8C"/>
<path d="M839.979 165.913L825.41 130L854.549 130L839.979 165.913Z" fill="#8C8C8C"/>
<path d="M811.14 166.313H839.979L855 199.994H824.658L811.14 166.313Z" fill="#8C8C8C"/>
<rect x="955" y="130.025" width="25.7533" height="69.975" fill="#8C8C8C"/>
<path d="M-10.0206 157.913L-24.5897 122L4.54858 122L-10.0206 157.913Z" fill="#8C8C8C"/>
<path d="M-38.86 158.313H-10.0206L4.99998 191.994H-25.3415L-38.86 158.313Z" fill="#8C8C8C"/>
<path d="M19.9794 1079.91L5.41028 1044L34.5486 1044L19.9794 1079.91Z" fill="#8C8C8C"/>
<path d="M-8.85999 1080.31H19.9794L35 1113.99H4.6585L-8.85999 1080.31Z" fill="#8C8C8C"/>
<rect x="135" y="1045.03" width="25.7533" height="69.975" fill="#8C8C8C"/>
<path d="M189.979 1080.91L175.41 1045L204.549 1045L189.979 1080.91Z" fill="#8C8C8C"/>
<path d="M161.14 1081.31H189.979L205 1114.99H174.659L161.14 1081.31Z" fill="#8C8C8C"/>
<rect x="305" y="1046.03" width="25.7533" height="69.975" fill="#8C8C8C"/>
<path d="M359.979 1081.91L345.41 1046L374.549 1046L359.979 1081.91Z" fill="#8C8C8C"/>
<path d="M331.14 1082.31H359.979L375 1115.99H344.659L331.14 1082.31Z" fill="#8C8C8C"/>
<rect x="475" y="1044.03" width="25.7533" height="69.975" fill="#8C8C8C"/>
<path d="M529.979 1079.91L515.41 1044L544.549 1044L529.979 1079.91Z" fill="#8C8C8C"/>
<path d="M501.14 1080.31H529.979L545 1113.99H514.659L501.14 1080.31Z" fill="#8C8C8C"/>
<rect x="645" y="1044.03" width="25.7533" height="69.975" fill="#8C8C8C"/>
<path d="M699.979 1079.91L685.41 1044L714.549 1044L699.979 1079.91Z" fill="#8C8C8C"/>
<path d="M671.14 1080.31H699.979L715 1113.99H684.658L671.14 1080.31Z" fill="#8C8C8C"/>
<rect x="815" y="1044.03" width="25.7533" height="69.975" fill="#8C8C8C"/>
<path d="M869.979 1079.91L855.41 1044L884.549 1044L869.979 1079.91Z" fill="#8C8C8C"/>
<path d="M841.14 1080.31H869.979L885 1113.99H854.658L841.14 1080.31Z" fill="#8C8C8C"/>
<rect x="112" y="587.025" width="25.7533" height="69.975" fill="#8C8C8C"/>
<path d="M166.979 622.913L152.41 587L181.549 587L166.979 622.913Z" fill="#8C8C8C"/>
<path d="M138.14 623.313H166.979L182 656.994H151.659L138.14 623.313Z" fill="#8C8C8C"/>
<rect x="282" y="588.025" width="25.7533" height="69.975" fill="#8C8C8C"/>
<path d="M336.979 623.913L322.41 588L351.549 588L336.979 623.913Z" fill="#8C8C8C"/>
<path d="M308.14 624.313H336.979L352 657.994H321.659L308.14 624.313Z" fill="#8C8C8C"/>
<rect x="452" y="589.025" width="25.7533" height="69.975" fill="#8C8C8C"/>
<path d="M506.979 624.913L492.41 589L521.549 589L506.979 624.913Z" fill="#8C8C8C"/>
<path d="M478.14 625.313H506.979L522 658.994H491.659L478.14 625.313Z" fill="#8C8C8C"/>
<rect x="622" y="587.025" width="25.7533" height="69.975" fill="#8C8C8C"/>
<path d="M676.979 622.913L662.41 587L691.549 587L676.979 622.913Z" fill="#8C8C8C"/>
<path d="M648.14 623.313H676.979L692 656.994H661.658L648.14 623.313Z" fill="#8C8C8C"/>
<rect x="792" y="587.025" width="25.7533" height="69.975" fill="#8C8C8C"/>
<path d="M846.979 622.913L832.41 587L861.549 587L846.979 622.913Z" fill="#8C8C8C"/>
<path d="M818.14 623.313H846.979L862 656.994H831.658L818.14 623.313Z" fill="#8C8C8C"/>
<path d="M-3.02056 614.913L-17.5897 579L11.5486 579L-3.02056 614.913Z" fill="#8C8C8C"/>
<path d="M-31.86 615.313H-3.02055L12 648.994H-18.3415L-31.86 615.313Z" fill="#8C8C8C"/>
<path d="M26.9794 1536.91L12.4103 1501L41.5486 1501L26.9794 1536.91Z" fill="#8C8C8C"/>
<path d="M-1.85999 1537.31H26.9794L42 1570.99H11.6585L-1.85999 1537.31Z" fill="#8C8C8C"/>
<rect x="142" y="1502.03" width="25.7533" height="69.975" fill="#8C8C8C"/>
<path d="M196.979 1537.91L182.41 1502L211.549 1502L196.979 1537.91Z" fill="#8C8C8C"/>
<path d="M168.14 1538.31H196.979L212 1571.99H181.659L168.14 1538.31Z" fill="#8C8C8C"/>
<rect x="312" y="1503.03" width="25.7533" height="69.975" fill="#8C8C8C"/>
<path d="M366.979 1538.91L352.41 1503L381.549 1503L366.979 1538.91Z" fill="#8C8C8C"/>
<path d="M338.14 1539.31H366.979L382 1572.99H351.659L338.14 1539.31Z" fill="#8C8C8C"/>
<rect x="482" y="1501.03" width="25.7533" height="69.975" fill="#8C8C8C"/>
<path d="M536.979 1536.91L522.41 1501L551.549 1501L536.979 1536.91Z" fill="#8C8C8C"/>
<path d="M508.14 1537.31H536.979L552 1570.99H521.659L508.14 1537.31Z" fill="#8C8C8C"/>
<rect x="652" y="1501.03" width="25.7533" height="69.975" fill="#8C8C8C"/>
<path d="M706.979 1536.91L692.41 1501L721.549 1501L706.979 1536.91Z" fill="#8C8C8C"/>
<path d="M678.14 1537.31H706.979L722 1570.99H691.658L678.14 1537.31Z" fill="#8C8C8C"/>
<rect x="822" y="1501.03" width="25.7533" height="69.975" fill="#8C8C8C"/>
<path d="M876.979 1536.91L862.41 1501L891.549 1501L876.979 1536.91Z" fill="#8C8C8C"/>
<path d="M848.14 1537.31H876.979L892 1570.99H861.658L848.14 1537.31Z" fill="#8C8C8C"/>
<rect x="200" y="257.025" width="25.7533" height="69.975" fill="#8C8C8C"/>
<path d="M254.979 292.913L240.41 257L269.549 257L254.979 292.913Z" fill="#8C8C8C"/>
<path d="M226.14 293.313H254.979L270 326.994H239.659L226.14 293.313Z" fill="#8C8C8C"/>
<rect x="370" y="258.025" width="25.7533" height="69.975" fill="#8C8C8C"/>
<path d="M424.979 293.913L410.41 258L439.549 258L424.979 293.913Z" fill="#8C8C8C"/>
<path d="M396.14 294.313H424.979L440 327.994H409.659L396.14 294.313Z" fill="#8C8C8C"/>
<rect x="540" y="259.025" width="25.7533" height="69.975" fill="#8C8C8C"/>
<path d="M594.979 294.913L580.41 259L609.549 259L594.979 294.913Z" fill="#8C8C8C"/>
<path d="M566.14 295.313H594.979L610 328.994H579.658L566.14 295.313Z" fill="#8C8C8C"/>
<rect x="710" y="257.025" width="25.7533" height="69.975" fill="#8C8C8C"/>
<path d="M764.979 292.913L750.41 257L779.549 257L764.979 292.913Z" fill="#8C8C8C"/>
<path d="M736.14 293.313H764.979L780 326.994H749.658L736.14 293.313Z" fill="#8C8C8C"/>
<rect x="880" y="257.025" width="25.7533" height="69.975" fill="#8C8C8C"/>
<path d="M934.979 292.913L920.41 257L949.549 257L934.979 292.913Z" fill="#8C8C8C"/>
<path d="M906.14 293.313H934.979L950 326.994H919.658L906.14 293.313Z" fill="#8C8C8C"/>
<rect x="30" y="249.025" width="25.7533" height="69.975" fill="#8C8C8C"/>
<path d="M84.9794 284.913L70.4103 249L99.5486 249L84.9794 284.913Z" fill="#8C8C8C"/>
<path d="M56.14 285.313H84.9795L100 318.994H69.6585L56.14 285.313Z" fill="#8C8C8C"/>
<rect x="60" y="1171.03" width="25.7533" height="69.975" fill="#8C8C8C"/>
<path d="M114.979 1206.91L100.41 1171L129.549 1171L114.979 1206.91Z" fill="#8C8C8C"/>
<path d="M86.14 1207.31H114.979L130 1240.99H99.6585L86.14 1207.31Z" fill="#8C8C8C"/>
<rect x="230" y="1172.03" width="25.7533" height="69.975" fill="#8C8C8C"/>
<path d="M284.979 1207.91L270.41 1172L299.549 1172L284.979 1207.91Z" fill="#8C8C8C"/>
<path d="M256.14 1208.31H284.979L300 1241.99H269.659L256.14 1208.31Z" fill="#8C8C8C"/>
<rect x="400" y="1173.03" width="25.7533" height="69.975" fill="#8C8C8C"/>
<path d="M454.979 1208.91L440.41 1173L469.549 1173L454.979 1208.91Z" fill="#8C8C8C"/>
<path d="M426.14 1209.31H454.979L470 1242.99H439.659L426.14 1209.31Z" fill="#8C8C8C"/>
<rect x="570" y="1171.03" width="25.7533" height="69.975" fill="#8C8C8C"/>
<path d="M624.979 1206.91L610.41 1171L639.549 1171L624.979 1206.91Z" fill="#8C8C8C"/>
<path d="M596.14 1207.31H624.979L640 1240.99H609.658L596.14 1207.31Z" fill="#8C8C8C"/>
<rect x="740" y="1171.03" width="25.7533" height="69.975" fill="#8C8C8C"/>
<path d="M794.979 1206.91L780.41 1171L809.549 1171L794.979 1206.91Z" fill="#8C8C8C"/>
<path d="M766.14 1207.31H794.979L810 1240.99H779.658L766.14 1207.31Z" fill="#8C8C8C"/>
<rect x="910" y="1171.03" width="25.7533" height="69.975" fill="#8C8C8C"/>
<path d="M964.979 1206.91L950.41 1171L979.549 1171L964.979 1206.91Z" fill="#8C8C8C"/>
<path d="M936.14 1207.31H964.979L980 1240.99H949.658L936.14 1207.31Z" fill="#8C8C8C"/>
<rect x="207" y="714.025" width="25.7533" height="69.975" fill="#8C8C8C"/>
<path d="M261.979 749.913L247.41 714L276.549 714L261.979 749.913Z" fill="#8C8C8C"/>
<path d="M233.14 750.313H261.979L277 783.994H246.659L233.14 750.313Z" fill="#8C8C8C"/>
<rect x="377" y="715.025" width="25.7533" height="69.975" fill="#8C8C8C"/>
<path d="M431.979 750.913L417.41 715L446.549 715L431.979 750.913Z" fill="#8C8C8C"/>
<path d="M403.14 751.313H431.979L447 784.994H416.659L403.14 751.313Z" fill="#8C8C8C"/>
<rect x="547" y="716.025" width="25.7533" height="69.975" fill="#8C8C8C"/>
<path d="M601.979 751.913L587.41 716L616.549 716L601.979 751.913Z" fill="#8C8C8C"/>
<path d="M573.14 752.313H601.979L617 785.994H586.658L573.14 752.313Z" fill="#8C8C8C"/>
<rect x="717" y="714.025" width="25.7533" height="69.975" fill="#8C8C8C"/>
<path d="M771.979 749.913L757.41 714L786.549 714L771.979 749.913Z" fill="#8C8C8C"/>
<path d="M743.14 750.313H771.979L787 783.994H756.658L743.14 750.313Z" fill="#8C8C8C"/>
<rect x="887" y="714.025" width="25.7533" height="69.975" fill="#8C8C8C"/>
<path d="M941.979 749.913L927.41 714L956.549 714L941.979 749.913Z" fill="#8C8C8C"/>
<path d="M913.14 750.313H941.979L957 783.994H926.658L913.14 750.313Z" fill="#8C8C8C"/>
<rect x="37" y="706.025" width="25.7533" height="69.975" fill="#8C8C8C"/>
<path d="M91.9794 741.913L77.4103 706L106.549 706L91.9794 741.913Z" fill="#8C8C8C"/>
<path d="M63.14 742.313H91.9795L107 775.994H76.6585L63.14 742.313Z" fill="#8C8C8C"/>
<rect x="67" y="1628.03" width="25.7533" height="69.975" fill="#8C8C8C"/>
<path d="M121.979 1663.91L107.41 1628L136.549 1628L121.979 1663.91Z" fill="#8C8C8C"/>
<path d="M93.14 1664.31H121.979L137 1697.99H106.659L93.14 1664.31Z" fill="#8C8C8C"/>
<rect x="237" y="1629.03" width="25.7533" height="69.975" fill="#8C8C8C"/>
<path d="M291.979 1664.91L277.41 1629L306.549 1629L291.979 1664.91Z" fill="#8C8C8C"/>
<path d="M263.14 1665.31H291.979L307 1698.99H276.659L263.14 1665.31Z" fill="#8C8C8C"/>
<rect x="407" y="1630.03" width="25.7533" height="69.975" fill="#8C8C8C"/>
<path d="M461.979 1665.91L447.41 1630L476.549 1630L461.979 1665.91Z" fill="#8C8C8C"/>
<path d="M433.14 1666.31H461.979L477 1699.99H446.659L433.14 1666.31Z" fill="#8C8C8C"/>
<rect x="577" y="1628.03" width="25.7533" height="69.975" fill="#8C8C8C"/>
<path d="M631.979 1663.91L617.41 1628L646.549 1628L631.979 1663.91Z" fill="#8C8C8C"/>
<path d="M603.14 1664.31H631.979L647 1697.99H616.658L603.14 1664.31Z" fill="#8C8C8C"/>
<rect x="747" y="1628.03" width="25.7533" height="69.975" fill="#8C8C8C"/>
<path d="M801.979 1663.91L787.41 1628L816.549 1628L801.979 1663.91Z" fill="#8C8C8C"/>
<path d="M773.14 1664.31H801.979L817 1697.99H786.658L773.14 1664.31Z" fill="#8C8C8C"/>
<rect x="917" y="1628.03" width="25.7533" height="69.975" fill="#8C8C8C"/>
<path d="M971.979 1663.91L957.41 1628L986.549 1628L971.979 1663.91Z" fill="#8C8C8C"/>
<path d="M943.14 1664.31H971.979L987 1697.99H956.658L943.14 1664.31Z" fill="#8C8C8C"/>
<rect x="118" y="367.025" width="25.7533" height="69.975" fill="#8C8C8C"/>
<path d="M172.979 402.913L158.41 367L187.549 367L172.979 402.913Z" fill="#8C8C8C"/>
<path d="M144.14 403.313H172.979L188 436.994H157.659L144.14 403.313Z" fill="#8C8C8C"/>
<rect x="288" y="368.025" width="25.7533" height="69.975" fill="#8C8C8C"/>
<path d="M342.979 403.913L328.41 368L357.549 368L342.979 403.913Z" fill="#8C8C8C"/>
<path d="M314.14 404.313H342.979L358 437.994H327.659L314.14 404.313Z" fill="#8C8C8C"/>
<rect x="458" y="369.025" width="25.7533" height="69.975" fill="#8C8C8C"/>
<path d="M512.979 404.913L498.41 369L527.549 369L512.979 404.913Z" fill="#8C8C8C"/>
<path d="M484.14 405.313H512.979L528 438.994H497.659L484.14 405.313Z" fill="#8C8C8C"/>
<rect x="628" y="367.025" width="25.7533" height="69.975" fill="#8C8C8C"/>
<path d="M682.979 402.913L668.41 367L697.549 367L682.979 402.913Z" fill="#8C8C8C"/>
<path d="M654.14 403.313H682.979L698 436.994H667.658L654.14 403.313Z" fill="#8C8C8C"/>
<rect x="798" y="367.025" width="25.7533" height="69.975" fill="#8C8C8C"/>
<path d="M852.979 402.913L838.41 367L867.549 367L852.979 402.913Z" fill="#8C8C8C"/>
<path d="M824.14 403.313H852.979L868 436.994H837.658L824.14 403.313Z" fill="#8C8C8C"/>
<path d="M2.97944 394.913L-11.5897 359L17.5486 359L2.97944 394.913Z" fill="#8C8C8C"/>
<path d="M-25.86 395.313H2.97945L18 428.994H-12.3415L-25.86 395.313Z" fill="#8C8C8C"/>
<rect x="-22" y="1281.03" width="25.7533" height="69.975" fill="#8C8C8C"/>
<path d="M32.9794 1316.91L18.4103 1281L47.5486 1281L32.9794 1316.91Z" fill="#8C8C8C"/>
<path d="M4.14001 1317.31H32.9794L48 1350.99H17.6585L4.14001 1317.31Z" fill="#8C8C8C"/>
<rect x="148" y="1282.03" width="25.7533" height="69.975" fill="#8C8C8C"/>
<path d="M202.979 1317.91L188.41 1282L217.549 1282L202.979 1317.91Z" fill="#8C8C8C"/>
<path d="M174.14 1318.31H202.979L218 1351.99H187.659L174.14 1318.31Z" fill="#8C8C8C"/>
<rect x="318" y="1283.03" width="25.7533" height="69.975" fill="#8C8C8C"/>
<path d="M372.979 1318.91L358.41 1283L387.549 1283L372.979 1318.91Z" fill="#8C8C8C"/>
<path d="M344.14 1319.31H372.979L388 1352.99H357.659L344.14 1319.31Z" fill="#8C8C8C"/>
<rect x="488" y="1281.03" width="25.7533" height="69.975" fill="#8C8C8C"/>
<path d="M542.979 1316.91L528.41 1281L557.549 1281L542.979 1316.91Z" fill="#8C8C8C"/>
<path d="M514.14 1317.31H542.979L558 1350.99H527.659L514.14 1317.31Z" fill="#8C8C8C"/>
<rect x="658" y="1281.03" width="25.7533" height="69.975" fill="#8C8C8C"/>
<path d="M712.979 1316.91L698.41 1281L727.549 1281L712.979 1316.91Z" fill="#8C8C8C"/>
<path d="M684.14 1317.31H712.979L728 1350.99H697.658L684.14 1317.31Z" fill="#8C8C8C"/>
<rect x="828" y="1281.03" width="25.7533" height="69.975" fill="#8C8C8C"/>
<path d="M882.979 1316.91L868.41 1281L897.549 1281L882.979 1316.91Z" fill="#8C8C8C"/>
<path d="M854.14 1317.31H882.979L898 1350.99H867.658L854.14 1317.31Z" fill="#8C8C8C"/>
<rect x="125" y="824.025" width="25.7533" height="69.975" fill="#8C8C8C"/>
<path d="M179.979 859.913L165.41 824L194.549 824L179.979 859.913Z" fill="#8C8C8C"/>
<path d="M151.14 860.313H179.979L195 893.994H164.659L151.14 860.313Z" fill="#8C8C8C"/>
<rect x="295" y="825.025" width="25.7533" height="69.975" fill="#8C8C8C"/>
<path d="M349.979 860.913L335.41 825L364.549 825L349.979 860.913Z" fill="#8C8C8C"/>
<path d="M321.14 861.313H349.979L365 894.994H334.659L321.14 861.313Z" fill="#8C8C8C"/>
<rect x="465" y="826.025" width="25.7533" height="69.975" fill="#8C8C8C"/>
<path d="M519.979 861.913L505.41 826L534.549 826L519.979 861.913Z" fill="#8C8C8C"/>
<path d="M491.14 862.313H519.979L535 895.994H504.659L491.14 862.313Z" fill="#8C8C8C"/>
<rect x="635" y="824.025" width="25.7533" height="69.975" fill="#8C8C8C"/>
<path d="M689.979 859.913L675.41 824L704.549 824L689.979 859.913Z" fill="#8C8C8C"/>
<path d="M661.14 860.313H689.979L705 893.994H674.658L661.14 860.313Z" fill="#8C8C8C"/>
<rect x="805" y="824.025" width="25.7533" height="69.975" fill="#8C8C8C"/>
<path d="M859.979 859.913L845.41 824L874.549 824L859.979 859.913Z" fill="#8C8C8C"/>
<path d="M831.14 860.313H859.979L875 893.994H844.658L831.14 860.313Z" fill="#8C8C8C"/>
<path d="M9.97944 851.913L-4.58971 816L24.5486 816L9.97944 851.913Z" fill="#8C8C8C"/>
<path d="M-18.86 852.313H9.97945L25 885.994H-5.3415L-18.86 852.313Z" fill="#8C8C8C"/>
<rect x="-15" y="1738.03" width="25.7533" height="69.975" fill="#8C8C8C"/>
<path d="M39.9794 1773.91L25.4103 1738L54.5486 1738L39.9794 1773.91Z" fill="#8C8C8C"/>
<path d="M11.14 1774.31H39.9794L55 1807.99H24.6585L11.14 1774.31Z" fill="#8C8C8C"/>
<rect x="155" y="1739.03" width="25.7533" height="69.975" fill="#8C8C8C"/>
<path d="M209.979 1774.91L195.41 1739L224.549 1739L209.979 1774.91Z" fill="#8C8C8C"/>
<path d="M181.14 1775.31H209.979L225 1808.99H194.659L181.14 1775.31Z" fill="#8C8C8C"/>
<rect x="325" y="1740.03" width="25.7533" height="69.975" fill="#8C8C8C"/>
<path d="M379.979 1775.91L365.41 1740L394.549 1740L379.979 1775.91Z" fill="#8C8C8C"/>
<path d="M351.14 1776.31H379.979L395 1809.99H364.659L351.14 1776.31Z" fill="#8C8C8C"/>
<rect x="495" y="1738.03" width="25.7533" height="69.975" fill="#8C8C8C"/>
<path d="M549.979 1773.91L535.41 1738L564.549 1738L549.979 1773.91Z" fill="#8C8C8C"/>
<path d="M521.14 1774.31H549.979L565 1807.99H534.659L521.14 1774.31Z" fill="#8C8C8C"/>
<rect x="665" y="1738.03" width="25.7533" height="69.975" fill="#8C8C8C"/>
<path d="M719.979 1773.91L705.41 1738L734.549 1738L719.979 1773.91Z" fill="#8C8C8C"/>
<path d="M691.14 1774.31H719.979L735 1807.99H704.658L691.14 1774.31Z" fill="#8C8C8C"/>
<rect x="835" y="1738.03" width="25.7533" height="69.975" fill="#8C8C8C"/>
<path d="M889.979 1773.91L875.41 1738L904.549 1738L889.979 1773.91Z" fill="#8C8C8C"/>
<path d="M861.14 1774.31H889.979L905 1807.99H874.658L861.14 1774.31Z" fill="#8C8C8C"/>
<rect x="96" y="1836.03" width="25.7533" height="69.975" fill="#8C8C8C"/>
<path d="M150.979 1871.91L136.41 1836L165.549 1836L150.979 1871.91Z" fill="#8C8C8C"/>
<path d="M122.14 1872.31H150.979L166 1905.99H135.659L122.14 1872.31Z" fill="#8C8C8C"/>
<rect x="266" y="1837.03" width="25.7533" height="69.975" fill="#8C8C8C"/>
<path d="M320.979 1872.91L306.41 1837L335.549 1837L320.979 1872.91Z" fill="#8C8C8C"/>
<path d="M292.14 1873.31H320.979L336 1906.99H305.659L292.14 1873.31Z" fill="#8C8C8C"/>
<rect x="436" y="1838.03" width="25.7533" height="69.975" fill="#8C8C8C"/>
<path d="M490.979 1873.91L476.41 1838L505.549 1838L490.979 1873.91Z" fill="#8C8C8C"/>
<path d="M462.14 1874.31H490.979L506 1907.99H475.659L462.14 1874.31Z" fill="#8C8C8C"/>
<rect x="606" y="1836.03" width="25.7533" height="69.975" fill="#8C8C8C"/>
<path d="M660.979 1871.91L646.41 1836L675.549 1836L660.979 1871.91Z" fill="#8C8C8C"/>
<path d="M632.14 1872.31H660.979L676 1905.99H645.658L632.14 1872.31Z" fill="#8C8C8C"/>
<rect x="776" y="1836.03" width="25.7533" height="69.975" fill="#8C8C8C"/>
<path d="M830.979 1871.91L816.41 1836L845.549 1836L830.979 1871.91Z" fill="#8C8C8C"/>
<path d="M802.14 1872.31H830.979L846 1905.99H815.658L802.14 1872.31Z" fill="#8C8C8C"/>
<rect x="946" y="1836.03" width="25.7533" height="69.975" fill="#8C8C8C"/>
</g>
<defs>
<clipPath id="clip0_227_188">
<rect width="960" height="1920" fill="white"/>
</clipPath>
</defs>
</svg>
