<svg width="28" height="30" viewBox="0 0 28 30" fill="none" xmlns="http://www.w3.org/2000/svg">
<path d="M3.11111 30H24.8889C26.6047 30 28 28.6545 28 27V10.5C28 10.1022 27.8361 9.72065 27.5444 9.43934C27.2527 9.15804 26.857 9 26.4444 9H21.7778V7.5C21.7778 3.3645 18.2887 0 14 0C9.71133 0 6.22222 3.3645 6.22222 7.5V9H1.55556C1.143 9 0.747335 9.15804 0.455612 9.43934C0.163888 9.72065 0 10.1022 0 10.5V27C0 28.6545 1.39533 30 3.11111 30ZM9.33333 7.5C9.33333 5.019 11.4271 3 14 3C16.5729 3 18.6667 5.019 18.6667 7.5V9H9.33333V7.5ZM3.11111 12H6.22222V15H9.33333V12H18.6667V15H21.7778V12H24.8889L24.892 27H3.11111V12Z" fill="black"/>
</svg>
