<svg width="28" height="28" viewBox="0 0 28 28" fill="none" xmlns="http://www.w3.org/2000/svg">
<path fill-rule="evenodd" clip-rule="evenodd" d="M14 16.8284L4.10051 26.7279C3.72543 27.103 3.21672 27.3137 2.68629 27.3137C2.15586 27.3137 1.64715 27.103 1.27208 26.7279C0.897005 26.3529 0.686291 25.8441 0.686291 25.3137C0.686291 24.7833 0.897005 24.2746 1.27208 23.8995L11.1716 14L1.27208 4.10051C0.897005 3.72544 0.686292 3.21673 0.686292 2.68629C0.686292 2.15586 0.897005 1.64715 1.27208 1.27208C1.64715 0.897008 2.15586 0.686295 2.68629 0.686295C3.21672 0.686295 3.72543 0.897008 4.10051 1.27208L14 11.1716L23.8995 1.27208C24.2746 0.897008 24.7833 0.686295 25.3137 0.686295C25.8441 0.686295 26.3528 0.897008 26.7279 1.27208C27.103 1.64715 27.3137 2.15586 27.3137 2.68629C27.3137 3.21673 27.103 3.72544 26.7279 4.10051L16.8284 14L26.7279 23.8995C27.103 24.2746 27.3137 24.7833 27.3137 25.3137C27.3137 25.8441 27.103 26.3529 26.7279 26.7279C26.3528 27.103 25.8441 27.3137 25.3137 27.3137C24.7833 27.3137 24.2746 27.103 23.8995 26.7279L14 16.8284Z" fill="black"/>
</svg>
