<svg width="42" height="48" viewBox="0 0 42 48" fill="none" xmlns="http://www.w3.org/2000/svg">
<path d="M24 0H29.94C30.372 2.145 31.56 4.851 33.645 7.536C35.685 10.167 38.391 12 42 12V18C36.741 18 32.79 15.558 30 12.513V33C30 35.9667 29.1203 38.8668 27.4721 41.3336C25.8238 43.8003 23.4812 45.7229 20.7403 46.8582C17.9994 47.9935 14.9834 48.2906 12.0737 47.7118C9.16394 47.133 6.49119 45.7044 4.39341 43.6066C2.29562 41.5088 0.867006 38.8361 0.288228 35.9264C-0.290551 33.0166 0.00649926 30.0006 1.14181 27.2597C2.27713 24.5189 4.19972 22.1762 6.66645 20.528C9.13319 18.8797 12.0333 18 15 18V24C13.22 24 11.4799 24.5278 9.99987 25.5168C8.51983 26.5057 7.36628 27.9113 6.68509 29.5558C6.0039 31.2004 5.82567 33.01 6.17294 34.7558C6.52021 36.5016 7.37737 38.1053 8.63605 39.364C9.89472 40.6226 11.4984 41.4798 13.2442 41.8271C14.99 42.1743 16.7996 41.9961 18.4442 41.3149C20.0887 40.6337 21.4943 39.4802 22.4832 38.0001C23.4722 36.5201 24 34.78 24 33V0Z" fill="black"/>
</svg>
