<svg width="45" height="36" viewBox="0 0 45 36" fill="none" xmlns="http://www.w3.org/2000/svg">
<path d="M19.8617 34.223C19.2616 34.8229 18.4478 35.1599 17.5993 35.1599C16.7508 35.1599 15.937 34.8229 15.3369 34.223L0.936916 19.823C0.337009 19.2229 -6.67562e-07 18.4091 -6.67562e-07 17.5606C-6.67562e-07 16.7121 0.337009 15.8983 0.936916 15.2982L15.3369 0.898196C15.9404 0.31529 16.7488 -0.00725179 17.5878 3.91489e-05C18.4268 0.00733009 19.2294 0.34387 19.8227 0.937176C20.416 1.53048 20.7526 2.33308 20.7599 3.17211C20.7672 4.01114 20.4446 4.81947 19.8617 5.42299L11.1993 14.3606L41.5993 14.3606C42.448 14.3606 43.2619 14.6977 43.8621 15.2979C44.4622 15.898 44.7993 16.7119 44.7993 17.5606C44.7993 18.4093 44.4622 19.2232 43.8621 19.8233C43.2619 20.4235 42.448 20.7606 41.5993 20.7606L11.1993 20.7606L19.8617 29.6982C20.4616 30.2983 20.7986 31.1121 20.7986 31.9606C20.7986 32.8091 20.4616 33.6229 19.8617 34.223Z" fill="black"/>
</svg>
