<svg width="42" height="42" viewBox="0 0 42 42" fill="none" xmlns="http://www.w3.org/2000/svg">
<path d="M29.115 31.5L21 23.3865L12.885 31.5L10.5 29.115L18.6135 21L10.5 12.8865L12.8865 10.5L21 18.6135L29.1135 10.5L31.5 12.8865L23.3865 21L31.5 29.115L29.115 31.5Z" fill="#D8D8D8"/>
<path d="M21 3C24.5601 3 28.0402 4.05568 31.0003 6.03355C33.9604 8.01141 36.2675 10.8226 37.6298 14.1117C38.9922 17.4008 39.3487 21.02 38.6541 24.5116C37.9596 28.0033 36.2453 31.2106 33.7279 33.7279C31.2106 36.2453 28.0033 37.9596 24.5116 38.6541C21.02 39.3487 17.4008 38.9922 14.1117 37.6298C10.8226 36.2675 8.01142 33.9603 6.03356 31.0003C4.05569 28.0402 3.00001 24.5601 3.00001 21C3.00557 16.2278 4.90377 11.6527 8.27823 8.27822C11.6527 4.90377 16.2278 3.00556 21 3ZM21 0C16.8466 0 12.7865 1.23163 9.33303 3.53914C5.8796 5.84665 3.18798 9.1264 1.59854 12.9636C0.00909895 16.8009 -0.406771 21.0233 0.403519 25.0969C1.21381 29.1705 3.21386 32.9123 6.15077 35.8492C9.08767 38.7861 12.8295 40.7862 16.9031 41.5965C20.9767 42.4068 25.1991 41.9909 29.0364 40.4015C32.8736 38.812 36.1534 36.1204 38.4609 32.667C40.7684 29.2135 42 25.1534 42 21C42 15.4305 39.7875 10.089 35.8492 6.15076C31.911 2.21249 26.5696 0 21 0Z" fill="#D8D8D8"/>
</svg>
