<svg width="43" height="43" viewBox="0 0 43 43" fill="none" xmlns="http://www.w3.org/2000/svg">
<path d="M21.3333 0C17.114 0 12.9894 1.25118 9.48118 3.59531C5.97293 5.93945 3.23858 9.27126 1.62391 13.1694C0.00924333 17.0676 -0.413228 21.357 0.409924 25.4953C1.23307 29.6335 3.26488 33.4348 6.2484 36.4183C9.23192 39.4018 13.0332 41.4336 17.1714 42.2568C21.3097 43.0799 25.5991 42.6574 29.4973 41.0428C33.3954 39.4281 36.7272 36.6937 39.0714 33.1855C41.4155 29.6772 42.6667 25.5527 42.6667 21.3333C42.6667 15.6754 40.4191 10.2492 36.4183 6.24839C32.4175 2.24761 26.9913 0 21.3333 0ZM21.3333 40C17.6414 40 14.0324 38.9052 10.9627 36.8541C7.89298 34.803 5.50043 31.8876 4.08759 28.4768C2.67476 25.0659 2.30509 21.3126 3.02535 17.6916C3.74561 14.0707 5.52344 10.7446 8.13402 8.13401C10.7446 5.52343 14.0707 3.7456 17.6917 3.02534C21.3126 2.30508 25.0659 2.67475 28.4768 4.08758C31.8877 5.50042 34.803 7.89297 36.8541 10.9627C38.9052 14.0324 40 17.6414 40 21.3333C40 26.284 38.0333 31.032 34.5327 34.5327C31.032 38.0333 26.284 40 21.3333 40Z" fill="#D8D8D8"/>
<path d="M29.3333 20H13.3333C12.9797 20 12.6406 20.1405 12.3905 20.3905C12.1405 20.6406 12 20.9797 12 21.3333C12 21.687 12.1405 22.0261 12.3905 22.2761C12.6406 22.5262 12.9797 22.6667 13.3333 22.6667H29.3333C29.687 22.6667 30.0261 22.5262 30.2761 22.2761C30.5262 22.0261 30.6667 21.687 30.6667 21.3333C30.6667 20.9797 30.5262 20.6406 30.2761 20.3905C30.0261 20.1405 29.687 20 29.3333 20Z" fill="#D8D8D8"/>
</svg>
