<svg width="43" height="43" viewBox="0 0 43 43" fill="none" xmlns="http://www.w3.org/2000/svg">
<path d="M32.2267 20H22.6667V10.44C22.6667 10.0864 22.5262 9.74726 22.2762 9.49721C22.0261 9.24717 21.687 9.10669 21.3334 9.10669C20.9797 9.10669 20.6406 9.24717 20.3905 9.49721C20.1405 9.74726 20 10.0864 20 10.44V20H10.44C10.0864 20 9.74726 20.1405 9.49721 20.3905C9.24717 20.6406 9.10669 20.9797 9.10669 21.3334C9.10669 21.687 9.24717 22.0261 9.49721 22.2762C9.74726 22.5262 10.0864 22.6667 10.44 22.6667H20V32.2267C20 32.5803 20.1405 32.9194 20.3905 33.1695C20.6406 33.4195 20.9797 33.56 21.3334 33.56C21.687 33.56 22.0261 33.4195 22.2762 33.1695C22.5262 32.9194 22.6667 32.5803 22.6667 32.2267V22.6667H32.2267C32.5803 22.6667 32.9194 22.5262 33.1695 22.2762C33.4195 22.0261 33.56 21.687 33.56 21.3334C33.56 20.9797 33.4195 20.6406 33.1695 20.3905C32.9194 20.1405 32.5803 20 32.2267 20Z" fill="#D8D8D8"/>
<path d="M21.3333 0C17.114 0 12.9894 1.25118 9.48118 3.59531C5.97293 5.93945 3.23858 9.27126 1.62391 13.1694C0.00924333 17.0676 -0.413228 21.357 0.409924 25.4953C1.23307 29.6335 3.26488 33.4348 6.2484 36.4183C9.23192 39.4018 13.0332 41.4336 17.1714 42.2568C21.3097 43.0799 25.5991 42.6574 29.4973 41.0428C33.3954 39.4281 36.7272 36.6937 39.0714 33.1855C41.4155 29.6772 42.6667 25.5527 42.6667 21.3333C42.6667 15.6754 40.4191 10.2492 36.4183 6.24839C32.4175 2.24761 26.9913 0 21.3333 0ZM21.3333 40C17.6414 40 14.0324 38.9052 10.9627 36.8541C7.89298 34.803 5.50043 31.8876 4.08759 28.4768C2.67476 25.0659 2.30509 21.3126 3.02535 17.6916C3.74561 14.0707 5.52344 10.7446 8.13402 8.13401C10.7446 5.52343 14.0707 3.7456 17.6917 3.02534C21.3126 2.30508 25.0659 2.67475 28.4768 4.08758C31.8877 5.50042 34.803 7.89297 36.8541 10.9627C38.9052 14.0324 40 17.6414 40 21.3333C40 26.284 38.0333 31.032 34.5327 34.5327C31.032 38.0333 26.284 40 21.3333 40Z" fill="#D8D8D8"/>
</svg>
