<svg width="39" height="39" viewBox="0 0 39 39" fill="none" xmlns="http://www.w3.org/2000/svg">
<path d="M38.3147 35.0053L29.4938 26.1844C31.6174 23.3572 32.7639 19.916 32.76 16.38C32.76 7.34813 25.4119 0 16.38 0C7.34813 0 0 7.34813 0 16.38C0 25.4119 7.34813 32.76 16.38 32.76C19.916 32.7639 23.3572 31.6174 26.1844 29.4938L35.0053 38.3147C35.4518 38.7138 36.0342 38.9269 36.6329 38.9101C37.2316 38.8934 37.8011 38.6481 38.2246 38.2246C38.6481 37.8011 38.8934 37.2316 38.9101 36.6329C38.9269 36.0342 38.7138 35.4518 38.3147 35.0053ZM4.68 16.38C4.68 14.066 5.36619 11.8039 6.65181 9.87983C7.93742 7.95577 9.76471 6.45616 11.9026 5.57061C14.0405 4.68506 16.393 4.45337 18.6626 4.90481C20.9321 5.35626 23.0169 6.47058 24.6532 8.10685C26.2894 9.74313 27.4037 11.8279 27.8552 14.0974C28.3066 16.367 28.0749 18.7195 27.1894 20.8574C26.3038 22.9953 24.8042 24.8226 22.8802 26.1082C20.9561 27.3938 18.694 28.08 16.38 28.08C13.2781 28.0763 10.3043 26.8424 8.11096 24.649C5.91759 22.4557 4.68372 19.4819 4.68 16.38Z" fill="black"/>
</svg>
